<?xml version="1.0" encoding="utf-8"?>
<!-- Generator: Adobe Illustrator 22.0.0, SVG Export Plug-In . SVG Version: 6.00 Build 0)  -->
<svg version="1.1" id="Layer_1" xmlns="http://www.w3.org/2000/svg" xmlns:xlink="http://www.w3.org/1999/xlink" x="0px" y="0px"
	 viewBox="0 0 500 593.3" style="enable-background:new 0 0 500 593.3;" xml:space="preserve">
<style type="text/css">
	.st0{fill:#2D2D2C;}
</style>
<g id="layerbg24">
	<path class="st0" d="M345.5,588.9c0.7-1,4.4-2.5,8.2-3.6c7.7-2.3,17.6-7.1,27.2-13.2c8.9-5.8,9.6-3.2,0.7,2.8
		c-10.1,7-22.4,13-29.9,14.5C343.7,591.1,343.7,591.1,345.5,588.9z"/>
	<path class="st0" d="M312.9,590.6c6.4-4.9,11.6-6.7,17.3-5.9c6.1,0.8,10,3.5,8.9,6.1c-0.5,1.3-3.7,1.7-14.6,1.7
		C311.6,592.4,310.7,592.3,312.9,590.6z"/>
	<path class="st0" d="M398.6,565.4c-0.1-0.6-0.1-1.9,0-3c0.4-3.2-5.8-26.2-9.6-36.1c-2.2-5.6-4.7-10-6.1-10.7
		c-4.6-2.5-19.1-1.6-48.4,3.1c-5.9,1-16.4,2.5-23.4,3.6c-7,1.1-17.2,3-22.8,4.4c-5.6,1.3-13.4,3.1-17.4,4.1
		c-4,0.8-12.4,2.6-18.6,4.1c-6.2,1.4-16.6,3.7-22.8,5s-13,2.9-14.8,3.5c-1.9,0.6-11.4,1.7-21.2,2.5c-13.9,1.1-19.9,1.1-26.6,0
		c-4.8-0.7-13.9-1.7-20.2-2.2c-6.2-0.4-11.9-1.2-12.5-1.8c-1.7-1.6,2.4-2.6,7.7-1.9c2.6,0.4,4.8,0.5,4.8,0.2
		c0-1.7-5.6-12.7-9.5-18.8c-2.8-4.1-4.9-7.9-4.9-8.5c0-1.6-4.8-11.8-7.9-16.7c-4.1-6.4-7.7-16.4-7.7-21.4
		c-0.1-5.3-2.8-19.1-5.4-27.6c-1.1-3.6-2.5-8.9-3.2-11.8c-1.3-5.6-4.2-8.2-10.7-9.4c-2.2-0.4-5.5-1.2-7.2-1.9
		c-1.8-0.6-6.4-1.7-10.2-2.3c-4-0.6-9-1.6-11.3-2c-2.3-0.5-12.2-0.8-22.2-0.8c-24.7,0-27.5,1.3-28.4,13.8c-0.2,2.3-0.8,4-1.6,3.6
		c-1.7-0.8-1-19.1,1.3-31.2c9-47.8,25.3-80.9,46.1-93.4c2.3-1.3,7.4-5.8,11.4-9.8c6.5-6.6,15.1-12,19.3-12c0.8,0,5.8-1.3,10.9-3
		s11.2-3.4,13.4-3.6c2.2-0.2,5.4-1.4,7.2-2.6c7.8-5,19.3-10.9,19.9-9.8c0.4,0.5-2.5,3.4-6.4,6.2c-4,2.9-9,7.3-11.2,10
		c-2.3,2.5-3.1,4-1.9,3c1.1-0.8,2-1.2,2-0.6c0,0.5,2.6-1.6,5.8-4.7c3.2-3.1,6.1-5.4,6.5-4.9c0.5,0.4-1.3,3.5-3.8,6.8
		c-2.5,3.4-4.4,6.5-4.2,7c0.4,0.4-0.2,3.7-1.2,7.2c-1.1,3.6-2.8,9.7-3.8,13.7c-1.1,4-3.7,12.7-6,19.3c-2.2,6.7-4,13-4,14
		c0,1.1-1.3,3.4-2.9,5.3c-1.6,1.8-3.5,5.5-4.4,8.2c-2.2,6.7-3.2,7.4-4.6,3.8c-0.7-1.8-1.4-3.2-1.7-3.2c-0.6,0,1.1,9.5,1.8,10.2
		c0.4,0.4,2-2.4,4-6c1.8-3.7,3.6-6.4,4-6.1c2.3,2.4,19.4-46.2,19.4-55.2c0-2,5-14.4,11.2-27.2c3.5-7.4,4.6-8.6,12.7-13.8
		c4.9-3,10.4-6.4,12.2-7.4c19.4-10.7,19-10.1,16.7-19.9c-0.6-2.6-1.4-7.2-1.8-10.2c-0.4-2.9-1.1-6.6-1.7-8.3
		c-1.8-4.7-4.8-15.8-5.4-19.4c-0.2-1.7-1.1-4.2-1.7-5.4c-2.4-4.8-4-23.4-3.6-43.6c0.4-15.8,0.7-20.9,1.9-20.8
		c0.8,0.2,1.4-1.1,1.6-3.6c0-2,0.2-5.8,0.4-8c1.4-14,1.7-24.2,0.7-21.2c-0.6,1.9-1.4,9.6-1.9,17.2c-0.8,13.3-1.7,16.6-3.7,13.4
		c-1.2-2-0.7-19.9,1-29.2c0.6-4,1.9-11.8,2.9-17.4c3.7-23.3,5-26.2,20.4-46.7c9-12,12.2-15.6,18.6-20.4c2-1.4,4.7-4.8,6-7.3
		c2.8-5.4,4.7-6.4,8.8-4.2c1.7,0.8,3.2,1.3,3.5,1.1c1-0.8,28,2,29,3.1c0.7,0.7,2.5,1.2,4.1,1.2c3,0,11.9,2.6,19.4,5.8
		c11.8,4.8,16.7,7.9,30.6,19.4c11.6,9.6,16.2,14.3,19.3,19.6c2.3,3.8,4.1,7.6,4.1,8.3c0,0.7,0.8,2.3,1.8,3.4
		c3.7,4.1,5.5,15.8,6.2,39.8c0.7,25.3,1.2,21.7-6.2,57.4c-1,4.3-1.9,11.3-2.4,15.6c-1.8,18.8-7,45.4-12,61.9
		c-0.7,2.3-0.2,2.6,4.9,3.4c3.1,0.4,6.6,1.6,7.8,2.6c1.1,1,5.4,3,9.6,4.6c4.2,1.4,9,3.5,10.7,4.4c1.7,1.1,5.4,3.4,8.4,5.2
		c3,1.7,6.2,3.7,7.2,4.3c7.3,4.7,22.1,9.8,32.4,11.4c10.6,1.6,11.9,1.8,14.8,2.9c3.6,1.4,19.1,14.8,31,26.6
		c17.6,17.6,29,42.3,36,77.3c4.3,21.5,6.4,29.3,9.7,36.8c1.9,4.4,2.3,6.5,1.4,9.4c-1.3,4.8-3.2,4.7-4.4-0.2
		c-1.9-7.3-4.9-10-13.6-12.4c-7-1.9-10.9-2-29.2-1.4c-18.4,0.7-38.5,2.9-47.9,5.3c-6.8,1.7-10,19.6-10,56.2
		c0.1,26.2,0.2,28.3,3.2,39.6c3.5,12.8,4.2,19,2.4,19.6c-0.7,0.2-2.5-3.1-4.1-7.4c-1.6-4.2-3.7-8-4.7-8.4c-3.1-1.2-3-0.1,0.4,4.8
		c1.8,2.5,4,7,5,9.8c1.2,3.6,2.3,5,3.5,4.6c2.6-1.1,5.2,6.5,5.2,15.6c0,6.5,0.4,7.8,1.8,7.3c3-1.2,3.2,1.3,0.4,3.2
		C404.6,565.3,398.7,566.7,398.6,565.4z M388.9,456.3v-4.8l-1,4.2c-1.1,4.3-1.7,13.2-1.1,17.4C387.2,476.2,388.9,462.6,388.9,456.3z
		 M390.9,438.1c0.5-4.3,0.5-8,0.1-8.4c-0.4-0.5-0.7,0.6-0.7,2.3s-0.8,5-1.8,7.3c-2.3,5.4-2.3,6.5-0.1,6.5
		C389.6,445.7,390.3,443.5,390.9,438.1z M112.9,427.6c-0.7-4.4-1.1-9.1-0.7-10.6c0.5-1.4,0.2-3.2-0.5-4.1c-0.7-1-0.4-3.5,1.2-7.8
		c3-8.3,4.9-20.2,4.9-30c0-4.2,0.6-9.7,1.3-12.2c0.7-2.6,1.1-4.9,0.7-5.2c-0.7-0.7-3.8,10.4-5.5,19.7c-1.1,5.5-1.1,8-0.1,9.2
		c1.7,2-1.9,16.9-4.8,19.8c-1.3,1.3-1.7,2.8-1.1,4.6c0.5,1.3,1.2,4.8,1.7,7.7c1.2,8.8,3.2,18,3.7,17.4
		C114.1,435.8,113.7,431.9,112.9,427.6z M128.8,360.9c1.3-4.2,4.8-12.8,7.7-19.2c5-10.9,13.7-35.6,20.4-58.2
		c1.8-5.9,4.3-12.8,5.6-15.4c1.3-2.6,2-4.9,1.8-5.3c-1-0.8-12.7,24.7-16.4,35.8c-1.9,5.8-4.8,15.5-6.5,21.6
		c-3.2,12.4-5.6,19.4-8.4,25.4c-5,10.7-8,22.2-8.5,33.2l-0.5,11.4l1.1-10.8C125.8,373.6,127.3,365.2,128.8,360.9z M105.7,349.7
		c-0.1-4.2,0.1-8.3,0.6-9.1c0.5-0.7,0.4-1.2-0.2-1.1c-0.7,0.2-1.2-0.1-1.2-0.8c0-0.6,0.5-1.1,1.2-0.8c0.6,0.1,0.8-0.2,0.4-1
		c-0.4-0.7-1.2-1-1.8-0.6c-0.6,0.4-1.3,0.2-1.7-0.4c-0.5-1-1.9-9.4-2.2-13.4c-0.1-1-1.2-3.4-2.5-5.4c-1.2-1.9-1.9-2.5-1.4-1.2
		s1.4,5.2,2,8.4c0.6,3.4,2.2,9.5,3.4,13.8c1.3,4.3,2.3,8.6,2.2,9.6c-0.4,3.6,0.2,9.6,1,9.6C105.7,357.3,105.8,353.8,105.7,349.7z
		 M253.7,338.2c4.8-4,10.7-9.2,13.1-11.8c6.8-7.1,34.2-41.8,40.7-51.3c5.6-8.3,15-25.9,13.8-25.9c-0.2,0-1.8,2.5-3.5,5.8
		c-3.4,6.7-21.6,25.6-26.9,28c-2.5,1.1-4.4,3.2-5.6,6.1c-1.1,2.6-3.2,5.2-5.4,6.4c-1.9,1-3.7,1.8-3.8,1.8c-2.4,0.1-5.8,1.8-6.2,3.2
		c-0.6,1.4-1.1,1.6-2.5,0.4c-1-0.8-1.8-2.4-1.8-3.6c0-2.3-4.4-6.8-5.5-5.6c-0.5,0.5,0.2,3.4,1.7,6.5c2.6,6.2,2.3,9.4-0.8,5.4
		c-3-3.8-6.8-4.4-7.7-1.3c-0.6,2.2-1.1,2.4-2.4,1.3c-1-0.8-2-1.1-2.4-0.6c-0.5,0.4-2.9,0.7-5.4,0.7c-2.4,0-5.2,0.5-5.9,1.2
		c-2.3,1.7-5.2-1.2-5.2-4.9v-3.1l-1.9,2.6c-1.3,1.9-2.3,2.4-3.4,1.6c-0.7-0.7-3.5-1.4-5.9-1.7c-4.6-0.5-10.9-5-9.7-7.1
		c1-1.6,3,0.2,2.2,1.8c-0.5,0.8-0.4,1,0.2,0.5c0.6-0.6,1.7-3.1,2.5-5.9c1.3-4.4,1.2-4.8-1-4.2c-2.5,0.7-4.2-1-2.3-2.2
		s1.4-2.8-0.8-2.5c-1.2,0-2.3-1.2-2.9-3.1c-1.3-5-7.9-12.6-13.8-16.1c-3.1-1.8-6.1-4.8-7.2-7c-1.6-3.5-1.7-3.1-1.1,6.7
		c1.6,22.9,12,46.3,31.6,69.7c7.7,9.2,11.9,12.5,18.8,14.2C243.7,345.8,244.8,345.4,253.7,338.2z M420.4,327.9
		c4.4-7.1,4.9-7.8,4.3-7.8c-1,0-10.2,15.1-10.9,18c-0.6,2.2-0.1,1.8,1.4-1.2C416.5,334.6,418.7,330.5,420.4,327.9z M86.6,323.4
		c-1.3-2.2-3.1-5.2-3.8-6.6s-1.9-2.9-2.8-3.2c-0.8-0.2,0.6,2.6,3.4,6.6C88.4,327.5,91.2,330.2,86.6,323.4z M421,302
		c1.9-2.2,2.3-4,0.6-2.9c-1.4,0.8-8.5,13.8-8.5,15.5c0,0.7,1.4-1.4,3.1-4.7C418,306.5,420.2,303,421,302z M408.3,304.5
		c0.8-2.3,3.1-7.7,5-11.9c1.9-4.2,3.2-7.8,3-8.2c-0.4-0.2-1.3,1.3-2.4,3.5c-4.7,10.3-6.7,15.1-7.4,18.1c-0.5,1.8-1.3,3.6-1.9,4
		c-0.6,0.4-1.1,1.6-1.1,2.6C403.5,314.9,405.4,311.6,408.3,304.5z M277.2,293.8c3-1.6,3.5-4.3,1-5.3c-1.1-0.5-1.9,0.4-2.4,1.8
		c-0.5,2.2-0.8,2.3-2.5,1c-1.7-1.4-2.2-1.3-3.1,0.1C267.4,295.8,271.1,297.2,277.2,293.8z M119.1,286.9c1-1.1,1-1.7,0.1-1.7
		c-1.8,0-3.8,4.1-3.7,7.4c0.1,2.5,0.2,2.4,1.1-0.6C117.2,290.2,118.3,287.9,119.1,286.9z M327.9,271.9c1.3-3.6,2.4-7.3,2.3-8.3
		c0-1.6-2.8,5.3-5.3,13.2C323.2,282.3,325.5,278.5,327.9,271.9z M273,214.5c3.4-4.7,6.2-5.6,4.8-1.4c-0.5,1.3,0.6,0.8,3-1.4
		c4.7-4.3,6-10.2,3.4-14c-1.8-2.6-2.4-2.8-24.8-2.8c-16.1-0.1-23.2-0.5-23.5-1.4c-0.7-2.2-6.2,0.8-7.1,3.7c-0.4,1.3-1.2,3.6-1.9,5.2
		c-1.1,2-1.1,3,0.1,4.2c1.2,1.2,1.4,1,1.1-1.2c-0.7-4.8,1.3-3.5,7.4,5c5.5,7.6,6,8,5.8,4.8c-0.4-5.3,2-8.8,6.6-9.6
		c6.5-1.1,24.2,1.1,25.6,3.1c0.4,0.6-1.6,4.2-4.2,8c-2.8,3.8-4.9,7.7-4.9,8.6C264.3,226.8,265.3,225.5,273,214.5z M304.6,192.2
		c-0.6-1.8,5.8-7.4,7.8-7c3.2,1,16.1-22.8,17.9-33c1.7-9.6,0.7-34-1.7-40.8c-1.3-3.6-1.8-9.4-1.6-20.3l0.2-15.4l-4.6-9
		c-7.4-14.6-13.3-19.4-23-18.8c-3.1,0.2-5.9-0.1-6.1-0.6c-0.4-0.5-3.5-1-6.8-1c-3.5,0-10.3-0.6-15.2-1.3c-19.6-2.6-45-3.4-55.7-1.7
		c-7.4,1.2-13.9,7.2-20.2,18.6c-4.9,8.8-9.7,23.4-8.8,26.3c0.4,1.1-0.1,4.9-1.1,8.5c-1,3.6-2,9-2.5,12c-0.4,3-1.6,9.4-2.6,14.2
		c-2.8,13.1-1.7,30,2.5,38.3c1.7,3.4,4.2,8.5,5.5,11.4c2.9,6.1,12,21.1,12,19.8c0-0.5-1.1-3-2.4-5.6c-1.3-2.5-1.9-4.9-1.3-5.3
		c1.3-0.8,4.4,2.6,5.4,6.2c1.1,3.1,3.1,3.6,2.4,0.6c-1-4.1,9.2-19.9,18.4-28.4c4.7-4.4,8.9-7.6,9.2-7c0.8,1.3-1,8.5-3.4,12.8
		c-2.2,4.1-2.5,7.1-0.7,6c0.7-0.4,1.6,0.1,1.9,1.2c0.7,1.7,1.1,1.7,3.6,0c2.2-1.4,4-1.6,7.7-0.7c6.4,1.4,6.1-0.1-0.2-2.3
		c-2.9-1-5-2.3-4.9-3c0.5-2.2,4-2,8.9,0.5c2.6,1.4,5.8,2.5,7.1,2.5c1.2,0,2.6,0.6,3,1.2c0.5,0.7,4.1,1.2,8.2,1.1
		c8.2-0.1,14.9,0.6,16.1,1.8c1.6,1.4,4.2,0.7,3.6-1.1c-1.6-4,1.7-2.8,4.7,1.8c3.4,5,5,6.5,2.9,2.4c-0.7-1.2-3.8-5.3-7.1-9
		c-6.1-7-7.9-10.8-5.8-12.2c2.6-1.6,22.4,22.7,22.4,27.5c0,2.2,3.6,10.6,4.6,10.6C305.1,194,305.1,193.2,304.6,192.2z M337,88.4
		c-1.7-4.3-3-7.3-3.1-6.8c-0.1,2.2,5.4,17.8,5.8,16.2C339.8,96.8,338.6,92.6,337,88.4z M182.5,71c0-3-3,6.1-3.8,12.2
		c-0.6,3.4-0.1,2.6,1.6-2.6C181.6,76.7,182.5,72.3,182.5,71z M320,48c-2.3-3.7-12.1-16-14-17.8c-1.3-1.3-0.4,0.4,6.2,9.7
		c4.3,6.2,8.6,11.3,9.5,11.3C321.9,51.2,321.2,49.8,320,48z"/>
	<path class="st0" d="M262.6,170.3c-0.4-0.7-0.2-1.6,0.5-2c0.6-0.4,1.2-0.4,1.2,0.1c0,0.4,0.8,0.1,1.8-0.7c1-0.7,2.3-1.1,3-0.6
		c1.7,1.1,0.1,3.4-1.8,2.5c-0.8-0.2-2,0-2.8,0.7S263.1,171,262.6,170.3z"/>
	<path class="st0" d="M211.7,133.5c-0.6-1.7,2.9-2.4,5.2-0.9c2.2,1.4,0.5,3.3-2.5,2.7C213.2,135,211.9,134.1,211.7,133.5z"/>
	<path class="st0" d="M221.1,135.4c-0.5-1.3,7.4-3.6,10.5-3c0.8,0.2,2-0.2,2.5-0.7c0.6-0.6,1.5-0.7,2-0.1c1.5,1.3-0.6,2.9-5,3.8
		C224,136.7,221.7,136.8,221.1,135.4z"/>
	<path class="st0" d="M315.6,128.5c-2-2.3-3.5-4.8-3-5.4c1.1-1.8,6.7,3.8,5.9,5.9c-0.2,0.8-0.1,1.2,0.5,0.8c0.6-0.4,1.4-0.1,1.8,0.5
		c0.5,0.6,0.2,1.4-0.4,1.8S317.6,130.9,315.6,128.5z"/>
	<path class="st0" d="M216.9,128.1c-0.2-2.8,0.8-6.7,1.8-7.6c2.5-2.2-0.4-1.9-5.3,0.4c-6.5,3-10.5,3.8-11.7,2.1
		c-0.5-0.7,0.3-1.6,2.4-2.2c17.1-5.5,15.7-5.4,22-2.3c4.2,2.1,5.8,2.3,5.7,1.4c-0.1-3.3,1.9-2.1,6.2,3.8c3.4,4.6,4.2,6.5,3,7.3
		c-1.1,0.8-2.1,0.2-3.8-2.1c-2.5-3.4-4.7-4.6-3.1-1.6c0.7,1.4,0.7,2.1-0.4,2.5c-1.7,0.6-3.5-1-3.1-3c0.2-1.2-1.8-3.4-3.4-3.7
		c-0.2,0-0.6,1.3-0.9,3.3c-0.4,2.9-1,3.1-4.9,2.7C219,128.8,217,128.4,216.9,128.1z"/>
	<path class="st0" d="M296.1,115.9c-3.2-0.6-11.2-1-17.4-0.8c-6.8,0.2-11.5-0.1-11.8-0.8c-0.1-0.6,0.8-1.3,2.2-1.6
		c2.9-0.5,6.4-3.6,7.6-6.6c0.5-1.4,1.8-1.8,4.7-1.4c2.2,0.4,7.2,0.6,11.2,0.7c4,0,8.9,0.8,10.9,1.7c3.2,1.3,3.8,2.2,3.6,5.6
		C306.8,117.2,305.6,117.6,296.1,115.9z"/>
	<path class="st0" d="M311.8,113c-2.4-1.9-3-3-1.9-3.6c0.8-0.5,2.6,0.4,4.4,2.2C318.3,115.4,316.4,116.6,311.8,113z"/>
	<path class="st0" d="M233.1,114c-2.3-0.1-9-0.8-15-1.6c-6.2-0.6-13.4-0.7-17.2-0.1c-4.7,0.7-6.6,0.6-7.6-0.6
		c-1.3-1.6-0.6-2.2,1.8-1.8c0.6,0.1,0.7-0.6,0.4-1.6c-0.5-1.2,0.1-2.4,1.6-3.1c2.9-1.6,4.4,0.6,1.6,2.3c-3.2,1.9-0.5,1.6,5.6-0.6
		c3-1.1,6.2-2.2,7.2-2.5c1.4-0.5,1.4-0.7-0.4-1.7c-1.4-0.8-2.6-0.8-3.8,0.1c-1,0.7-1.9,0.8-2.3,0.2c-1.1-1.8,1.9-3.5,5.3-3
		c1.7,0.1,5.4,0.6,8.4,1c3,0.2,6.7,0.6,8.3,0.6c5.4,0,12.1,2.5,13.3,4.8c0.7,1.3,1,2.4,0.5,2.4s0,1,1.1,2.2c1.2,1.2,1.7,2.6,1.2,3
		C242.3,114.8,241.1,114.8,233.1,114z"/>
	<path class="st0" d="M124.4,540.9c-0.5-0.7-1.2-1-1.8-0.6c-1.3,0.8-7.4-6.5-6.5-7.9c0.7-1.3,4.2,0.4,6.5,3.1c1,1.2,3,2.5,4.6,3.1
		s2.4,1.6,2,2.3C128.3,542.5,125.4,542.5,124.4,540.9z"/>
	<path class="st0" d="M66.8,539.6c-1.1-1.6,3.7-3.5,8-3.1c2.2,0.2,4.6,0,5.3-0.6c1.9-1.4,12-2.6,14.4-1.7c3.6,1.4,0.2,3-7.4,3.5
		c-4.1,0.2-8,1-8.8,1.4c-0.8,0.5-1.8,0.6-2,0.2c-0.4-0.2-2.5-0.1-4.8,0.4S67.2,540.2,66.8,539.6z"/>
	<path class="st0" d="M98,537.3c-1-1.6,2.4-2.9,4.9-1.9c2.4,1,1.1,3.1-1.9,3.1C99.8,538.5,98.4,537.9,98,537.3z"/>
	<path class="st0" d="M100.8,515.4c-11.4-12.5-19.3-23.3-17.9-24.1c1.1-0.7,3.5,1.7,12,12.5c3.5,4.3,7.8,9,9.8,10.6
		c1.9,1.6,3.5,3.4,3.5,4.2c0,0.7,1.1,2.5,2.5,4c1.4,1.4,1.9,2.9,1.3,3.4C111.3,526.2,106.3,521.5,100.8,515.4z"/>
	<path class="st0" d="M73.7,516.2c-3.1-2.2-5.4-6.1-4.2-6.8c0.6-0.4,2.8,1.2,4.9,3.4C78.6,516.8,78.1,519.3,73.7,516.2z"/>
	<path class="st0" d="M0.7,506.8c-0.5-1.2-0.2-2.6,0.5-3.4c1-1,1.6-0.8,2.2,0.7c0.5,1.2,0.2,2.6-0.5,3.4
		C1.9,508.5,1.3,508.4,0.7,506.8z"/>
	<path class="st0" d="M3.1,492.4c-0.5-1.1-0.1-2.6,0.6-3.6c0.7-0.8,1-1.9,0.6-2.3c-0.5-0.4-0.4-1.7,0.1-2.9c0.6-1.2,1.1-2.5,1.1-3
		c0.1-0.6,0.5-1,1.1-1c0.5,0,1.2,0,1.6,0c0.5,0,0.1,0.7-0.6,1.6c-0.7,1-1,2-0.6,2.4c0.5,0.4,0.4,1.7-0.1,2.9c-0.6,1.2-0.8,3-0.7,4.2
		C6.4,493.4,3.9,494.7,3.1,492.4z"/>
	<path class="st0" d="M6.9,476.2c-0.5-0.7,0.8-7.9,2.9-16c5-19.6,4.7-18.4,6.2-16.8c1,1,0.4,5.3-2.6,16.7
		C9.3,475.9,8.2,478.5,6.9,476.2z"/>
	<path class="st0" d="M293.5,137c-3,0.3-4.5-1.6-2.3-2.9c2.4-1.2,5.9-0.3,5.1,1.3C296,136.1,294.7,136.8,293.5,137z"/>
	<path class="st0" d="M276.9,135.9c-4.4-1.2-6.3-3-4.7-4.2c0.5-0.5,1.4-0.4,2,0.3c0.4,0.6,1.6,1,2.4,0.9c3.1-0.4,10.8,2.5,10.2,3.8
		C286.1,137.9,283.8,137.7,276.9,135.9z"/>
	<path class="st0" d="M286.9,130.2c-4,0.1-4.5-0.2-4.7-3.1c-0.1-1.9-0.4-3.3-0.6-3.3c-1.7,0.2-3.8,2.3-3.7,3.5
		c0.2,2-1.6,3.6-3.3,2.8c-1-0.5-1-1.2-0.2-2.5c1.8-2.9-0.5-1.9-3.2,1.3c-1.8,2.1-2.8,2.6-3.9,1.8c-1.2-0.9-0.2-2.8,3.5-7.1
		c4.8-5.5,6.8-6.6,6.5-3.3c-0.1,1,1.4,0.8,5.8-0.9c6.5-2.6,5.1-2.8,21.7,4c2,0.7,2.7,1.7,2.2,2.4c-1.3,1.6-5.3,0.5-11.5-3
		c-4.8-2.7-7.6-3.2-5.3-0.8c1,1,1.7,4.9,1.3,7.7C291.4,129.9,289.4,130.2,286.9,130.2z"/>
</g>
</svg>
